<svg xmlns="http://www.w3.org/2000/svg" viewBox="0 0 34.37 40"><defs><style>.a{fill:#ffd12e;}.b{fill:#5120a9;}.c{fill:#ff0082;}.d{fill:#00e095;}</style></defs><title>Asset 1</title><path class="a" d="M0,16.52a3.48,3.48,0,0,1,1.16-2.59L11.48,4.71,12,4.27l0,0L16.74,0H27.39a2.66,2.66,0,0,1,1.77,4.65L12,20H0Z"/><path class="b" d="M12,0V12a8,8,0,0,1-8,8H0V2.67A2.66,2.66,0,0,1,2.67,0Z"/><path class="c" d="M12,26.86V32a8,8,0,0,1-8,8H0V20H5.14A6.86,6.86,0,0,1,12,26.86Z"/><path class="d" d="M34.37,40H23.11A16.68,16.68,0,0,1,12,35.76h0l0,0-.49-.44L3.75,28.38A11.22,11.22,0,0,1,0,20H12Z"/></svg>