<svg xmlns="http://www.w3.org/2000/svg" viewBox="0 0 25.66 35"><defs><style>.a{fill:#fff;}</style></defs><title>Asset 1</title><path class="a" d="M8.72,10.55a2.61,2.61,0,1,0,2.61,2.61A2.6,2.6,0,0,0,8.72,10.55Zm0,4a1.4,1.4,0,1,1,1.4-1.4A1.4,1.4,0,0,1,8.73,14.56Z"/><path class="a" d="M16.93,10.55a2.61,2.61,0,1,0,2.61,2.61A2.61,2.61,0,0,0,16.93,10.55Zm0,4a1.41,1.41,0,1,1,1.4-1.41A1.41,1.41,0,0,1,16.93,14.57Z"/><path class="a" d="M16.93,18.51H8.73a.61.61,0,0,0,0,1.21h8.2a.61.61,0,0,0,0-1.21Z"/><path class="a" d="M22.39,28.45v0H18.44V24.36h2.62a1.27,1.27,0,0,0,1.27-1.27V19.78a3.74,3.74,0,0,0,0-7.39V9.07A1.27,1.27,0,0,0,21.06,7.8H15.64l1.94-3.61a2.13,2.13,0,1,0-1.06-.61L14.27,7.8H11.39L9.13,3.62a2.14,2.14,0,1,0-1.06.6L10,7.84H4.6A1.27,1.27,0,0,0,3.33,9.11h0v3.31a3.74,3.74,0,0,0,0,7.39v3.32A1.27,1.27,0,0,0,4.6,24.4H7.21v4.05H3.27a3.28,3.28,0,0,0,0,6.55H22.39a3.28,3.28,0,0,0,0-6.55Zm-.07-14.84a2.54,2.54,0,0,1,0,4.94Zm-5.1-11.9a.9.9,0,0,1,.81-.5.93.93,0,0,1,.92.91.92.92,0,1,1-1.73-.41ZM8.1,2.91v0a.9.9,0,1,1,.44-.76A.92.92,0,0,1,8.1,2.89ZM3.34,18.54a2.54,2.54,0,0,1-1.87-3.07A2.57,2.57,0,0,1,3.34,13.6Zm1.27,4.62h0a.07.07,0,0,1-.07-.07v-14A.07.07,0,0,1,4.61,9H21.05a.07.07,0,0,1,.07.07v14a.07.07,0,0,1-.07.07Zm12.65,1.19v4.06H8.42V24.36Zm5.13,9.38H3.27a2.07,2.07,0,0,1,0-4.14H22.39a2.07,2.07,0,0,1,0,4.14Z"/></svg>